<svg width="19" height="19" viewBox="0 0 19 19" fill="none" xmlns="http://www.w3.org/2000/svg">
<path d="M13.4336 4.05054V2.61627C13.4336 2.49195 13.2907 2.4233 13.1943 2.49937L4.82981 9.03248C4.75874 9.08775 4.70124 9.15851 4.66168 9.23939C4.62213 9.32026 4.60156 9.4091 4.60156 9.49913C4.60156 9.58916 4.62213 9.678 4.66168 9.75887C4.70124 9.83974 4.75874 9.91051 4.82981 9.96578L13.1943 16.4989C13.2926 16.575 13.4336 16.5063 13.4336 16.382V14.9477C13.4336 14.8568 13.3909 14.7696 13.3204 14.7139L6.64075 9.50006L13.3204 4.28433C13.3909 4.22867 13.4336 4.14146 13.4336 4.05054Z" fill="#171717"/>
</svg>
